<?xml version="1.0" encoding="UTF-8"?>
<svg version="1.1" xmlns="http://www.w3.org/2000/svg" width="61" height="61">
<path d="M0 0 C20.13 0 40.26 0 61 0 C61 20.13 61 40.26 61 61 C40.87 61 20.74 61 0 61 C0 40.87 0 20.74 0 0 Z " fill="#131416" transform="translate(0,0)"/>
<path d="M0 0 C8.58 0 17.16 0 26 0 C30.46288907 14.87629689 30.46288907 14.87629689 29 23 C27.13991095 26.28772041 24.87118453 28.57557655 22 31 C21.071875 31.825 20.14375 32.65 19.1875 33.5 C17 35 17 35 15 35 C15.33 37.97 15.66 40.94 16 44 C17.85625 44.1546875 17.85625 44.1546875 19.75 44.3125 C23.2792866 44.73801682 25.37160966 45.48112592 28 48 C27 51 27 51 25.03125 52.171875 C20.82194392 53.32184006 16.84312902 53.28990624 12.5 53.25 C11.65824219 53.25773437 10.81648438 53.26546875 9.94921875 53.2734375 C5.52519923 53.25950358 2.02061122 53.07621727 -2 51 C-2 49.68 -2 48.36 -2 47 C1.03525486 44.97649676 2.19426202 44.67875982 5.6875 44.375 C6.49574219 44.30023438 7.30398437 44.22546875 8.13671875 44.1484375 C8.75160156 44.09945312 9.36648437 44.05046875 10 44 C10.25464475 40.76451374 10.07499552 38.07687605 9 35 C6.61098355 32.63197667 4.1354391 30.79911582 1.34765625 28.921875 C-2.19570596 26.02115253 -2.85453666 23.45841167 -3.30078125 18.984375 C-3.30464844 17.91703125 -3.30851563 16.8496875 -3.3125 15.75 C-3.32925781 14.69296875 -3.34601562 13.6359375 -3.36328125 12.546875 C-3 9 -3 9 0 0 Z " fill="#F11910" transform="translate(18,5)"/>
<path d="M0 0 C8.58 0 17.16 0 26 0 C28 5 28 5 28 12 C13.15 11.505 13.15 11.505 -2 11 C-2 4 -2 4 0 0 Z " fill="#D9D7D7" transform="translate(18,5)"/>
<path d="M0 0 C1.32 0 2.64 0 4 0 C4.33 2.64 4.66 5.28 5 8 C6.85625 8.1546875 6.85625 8.1546875 8.75 8.3125 C12.2792866 8.73801682 14.37160966 9.48112592 17 12 C16 15 16 15 14.03125 16.171875 C9.82194392 17.32184006 5.84312902 17.28990624 1.5 17.25 C0.23736328 17.26160156 0.23736328 17.26160156 -1.05078125 17.2734375 C-5.47480077 17.25950358 -8.97938878 17.07621727 -13 15 C-13 13.68 -13 12.36 -13 11 C-9.81865917 8.87910612 -9.06596157 8.76740147 -5.4375 8.875 C-4.25994141 8.90207031 -4.25994141 8.90207031 -3.05859375 8.9296875 C-2.37925781 8.95289063 -1.69992188 8.97609375 -1 9 C-0.34 9 0.32 9 1 9 C0.67 8.67 0.34 8.34 0 8 C-0.14115161 5.32941149 -0.04247107 2.67567762 0 0 Z " fill="#D9D9D9" transform="translate(29,41)"/>
<path d="M0 0 C0.33 0.66 0.66 1.32 1 2 C4.96 2 8.92 2 13 2 C13 2.33 13 2.66 13 3 C9.7 3 6.4 3 3 3 C3.63262842 6.34389308 4.29630092 9.67115399 5 13 C5.3403125 14.6396875 5.3403125 14.6396875 5.6875 16.3125 C7.54537082 20.11671168 10.35470156 21.9622051 14 24 C14.99 24.33 15.98 24.66 17 25 C17 24.34 17 23.68 17 23 C17.60328125 22.70867188 18.2065625 22.41734375 18.828125 22.1171875 C24.12363265 19.40110454 27.1803134 17.27158799 30 12 C29.67 11.67 29.34 11.34 29 11 C28.85884839 8.32941149 28.95752893 5.67567762 29 3 C26.03 3 23.06 3 20 3 C20 2.67 20 2.34 20 2 C21.04800781 2.01740234 21.04800781 2.01740234 22.1171875 2.03515625 C23.02726562 2.04417969 23.93734375 2.05320312 24.875 2.0625 C25.77992187 2.07410156 26.68484375 2.08570313 27.6171875 2.09765625 C30.0168585 2.16249257 30.0168585 2.16249257 32 1 C33.05745642 12.01097482 33.05745642 12.01097482 30.6875 16.46875 C28.91129378 18.53041793 27.0984101 20.26901579 25 22 C24.37867187 22.5259375 23.75734375 23.051875 23.1171875 23.59375 C19.79896924 26.17937462 18.29764734 27 14 27 C14.33 29.64 14.66 32.28 15 35 C15.66 35 16.32 35 17 35 C17 35.66 17 36.32 17 37 C14.36 36.67 11.72 36.34 9 36 C10.98 35.505 10.98 35.505 13 35 C13.25464475 31.76451374 13.07499552 29.07687605 12 26 C9.61098355 23.63197667 7.1354391 21.79911582 4.34765625 19.921875 C1.61703919 17.68649464 0.87259031 16.39669337 0 13 C-0.1953125 9.66796875 -0.1953125 9.66796875 -0.125 6.1875 C-0.10695313 5.02605469 -0.08890625 3.86460938 -0.0703125 2.66796875 C-0.04710937 1.78753906 -0.02390625 0.90710937 0 0 Z " fill="#724A49" transform="translate(15,14)"/>
<path d="M0 0 C0.1953125 6.0546875 0.1953125 6.0546875 0 8 C-2 10 -2 10 -4.5625 10.1875 C-7 10 -7 10 -8 9 C-8.14115161 6.32941149 -8.04247107 3.67567762 -8 1 C-10.97 1 -13.94 1 -17 1 C-17.144375 2.464375 -17.28875 3.92875 -17.4375 5.4375 C-17.875 9.875 -17.875 9.875 -19 11 C-21.4375 11.25 -21.4375 11.25 -24 11 C-26.67927341 6.98108988 -26.15601248 4.75838077 -26 0 C-17.2478303 -1.36752652 -8.77387981 -0.70757095 0 0 Z " fill="#DA231C" transform="translate(44,17)"/>
<path d="M0 0 C0.33 0.66 0.66 1.32 1 2 C-2.95401112 8.35466073 -5.82816118 10.88104762 -13 13 C-13 13.66 -13 14.32 -13 15 C-17.01548242 14.38223347 -19.8042108 12.43157874 -23 10 C-24.1796875 7.86328125 -24.1796875 7.86328125 -25 6 C-23.48019531 6.01740234 -23.48019531 6.01740234 -21.9296875 6.03515625 C-20.57812686 6.04454209 -19.2265642 6.05364143 -17.875 6.0625 C-17.20984375 6.07087891 -16.5446875 6.07925781 -15.859375 6.08789062 C-11.80041133 6.10778751 -7.95484555 5.94987982 -4 5 C-2.69934079 3.06616713 -2.69934079 3.06616713 -2 1 C-1.34 0.67 -0.68 0.34 0 0 Z " fill="#590D0A" transform="translate(45,24)"/>
<path d="M0 0 C3.3 0 6.6 0 10 0 C9.690625 1.0725 9.38125 2.145 9.0625 3.25 C8.33187904 5.82866222 7.62517096 8.39512102 7 11 C4.625 11.1875 4.625 11.1875 2 11 C-0.67927341 6.98108988 -0.15601248 4.75838077 0 0 Z " fill="#E7413B" transform="translate(18,17)"/>
<path d="M0 0 C3.14624993 -0.26218749 4.61837017 -0.24754367 7.3125 1.5 C7.869375 1.995 8.42625 2.49 9 3 C8 6 8 6 6.05078125 7.1796875 C1.7365687 8.33971904 -2.36821192 8.21116815 -6.8125 8.125 C-7.69615234 8.11597656 -8.57980469 8.10695313 -9.49023438 8.09765625 C-11.66027359 8.07419637 -13.83017247 8.03832865 -16 8 C-16 7.67 -16 7.34 -16 7 C-15.11248047 6.90912109 -15.11248047 6.90912109 -14.20703125 6.81640625 C-12.5796677 6.64384731 -10.95335037 6.46118518 -9.328125 6.26953125 C-7.57609636 6.06669572 -5.81987793 5.89956408 -4.0625 5.75 C-1.71579089 5.16156895 -1.71579089 5.16156895 -0.6875 2.4375 C-0.460625 1.633125 -0.23375 0.82875 0 0 Z " fill="#C4C3C3" transform="translate(37,50)"/>
<path d="M0 0 C1.99897128 0.33944795 3.99875639 0.67421616 6 1 C5.67 1.66 5.34 2.32 5 3 C-1.35148412 4.71661733 -9.7354198 5.0881934 -16 3 C-16 2.34 -16 1.68 -16 1 C-14.27327966 0.63409254 -12.54346345 0.28277805 -10.8125 -0.0625 C-9.36810547 -0.35833984 -9.36810547 -0.35833984 -7.89453125 -0.66015625 C-4.9287169 -1.00836927 -2.8739531 -0.72806812 0 0 Z " fill="#96100B" transform="translate(36,27)"/>
<path d="M0 0 C-1 3 -1 3 -3.9375 4.6875 C-7 6 -7 6 -9 6 C-9 6.66 -9 7.32 -9 8 C-12.78967525 7.45861782 -14.51412839 5.84099612 -17 3 C-17 2.67 -17 2.34 -17 2 C-16.24074219 1.93941406 -15.48148438 1.87882812 -14.69921875 1.81640625 C-13.70535156 1.73261719 -12.71148437 1.64882813 -11.6875 1.5625 C-10.70136719 1.48128906 -9.71523438 1.40007813 -8.69921875 1.31640625 C-5.61423387 0.95477995 -3.13154097 0 0 0 Z " fill="#430F0D" transform="translate(41,31)"/>
<path d="M0 0 C2.31 0 4.62 0 7 0 C6.01 1.485 6.01 1.485 5 3 C4.92094936 5.33199388 4.91201231 7.66832622 5 10 C3.02 10 1.04 10 -1 10 C-1.125 2.25 -1.125 2.25 0 0 Z " fill="#F1F1F1" transform="translate(18,5)"/>
<path d="M0 0 C1.32 0 2.64 0 4 0 C4.33 4.29 4.66 8.58 5 13 C3.02 13 1.04 13 -1 13 C-1 12.01 -1 11.02 -1 10 C0.32 10 1.64 10 3 10 C2.01 9.34 1.02 8.68 0 8 C-0.40843923 5.28796348 -0.13336867 2.7562858 0 0 Z " fill="#BEBDBE" transform="translate(29,41)"/>
<path d="M0 0 C0.33 0.66 0.66 1.32 1 2 C4.96 2 8.92 2 13 2 C13 2.33 13 2.66 13 3 C9.7 3 6.4 3 3 3 C3.185625 4.423125 3.37125 5.84625 3.5625 7.3125 C3.97482862 10.47368607 4.03159626 11.90521121 3 15 C2.34 15 1.68 15 1 15 C-0.44207941 12.11584117 -0.09394887 9.58278472 -0.0625 6.375 C-0.05347656 5.18648437 -0.04445313 3.99796875 -0.03515625 2.7734375 C-0.02355469 1.85820312 -0.01195312 0.94296875 0 0 Z " fill="#B16F6C" transform="translate(15,14)"/>
<path d="M0 0 C5.28 0.33 10.56 0.66 16 1 C16 3.64 16 6.28 16 9 C15.67 9 15.34 9 15 9 C15 6.69 15 4.38 15 2 C13.68 2 12.36 2 11 2 C11 3.32 11 4.64 11 6 C10.01 5.67 9.02 5.34 8 5 C8 4.01 8 3.02 8 2 C5.36 2 2.72 2 0 2 C0 1.34 0 0.68 0 0 Z " fill="#C62F29" transform="translate(28,16)"/>
<path d="M0 0 C0.66 0.33 1.32 0.66 2 1 C2.226875 1.9075 2.45375 2.815 2.6875 3.75 C4.50731106 8.25619882 6.93278567 9.43916135 11 12 C10.01 12.33 9.02 12.66 8 13 C5.7734375 11.671875 5.7734375 11.671875 3.375 9.75 C2.57835937 9.12609375 1.78171875 8.5021875 0.9609375 7.859375 C-1 6 -1 6 -2 3 C-1.34 3 -0.68 3 0 3 C0 2.01 0 1.02 0 0 Z " fill="#614A4A" transform="translate(18,26)"/>
<path d="M0 0 C2.31 0 4.62 0 7 0 C6.67 0.66 6.34 1.32 6 2 C4.68 2 3.36 2 2 2 C2.33 4.64 2.66 7.28 3 10 C3.66 10 4.32 10 5 10 C5 10.66 5 11.32 5 12 C2.36 11.67 -0.28 11.34 -3 11 C-1.68 10.67 -0.36 10.34 1 10 C0.67 6.7 0.34 3.4 0 0 Z " fill="#8E8182" transform="translate(27,39)"/>
<path d="M0 0 C0.66 0 1.32 0 2 0 C1.85950482 1.47968324 1.71245174 2.95874516 1.5625 4.4375 C1.48128906 5.26121094 1.40007813 6.08492187 1.31640625 6.93359375 C1 9 1 9 0 10 C-1.66617115 10.04063832 -3.33388095 10.042721 -5 10 C-4.34 9.01 -3.68 8.02 -3 7 C-2.43182698 5.78285872 -1.88996248 4.55309144 -1.375 3.3125 C-0.92125 2.219375 -0.4675 1.12625 0 0 Z " fill="#E9312A" transform="translate(25,18)"/>
<path d="M0 0 C0.66 0.66 1.32 1.32 2 2 C4.57061311 2.64767793 4.57061311 2.64767793 7 3 C7 3.33 7 3.66 7 4 C4.02942405 4.06908316 1.34790099 4.07636851 -1.5625 3.4375 C-4.32695534 2.94131571 -6.29996922 3.30570637 -9 4 C-9 3.34 -9 2.68 -9 2 C-5.54754176 -0.30163882 -4.05261287 -0.34490322 0 0 Z " fill="#CC120B" transform="translate(35,24)"/>
<path d="M0 0 C1.98 0 3.96 0 6 0 C6.33 1.98 6.66 3.96 7 6 C4.03 5.505 4.03 5.505 1 5 C1.33 3.68 1.66 2.36 2 1 C1.34 0.67 0.68 0.34 0 0 Z " fill="#E40C04" transform="translate(29,19)"/>
<path d="M0 0 C0.598125 0.20625 1.19625 0.4125 1.8125 0.625 C0.8225 0.625 -0.1675 0.625 -1.1875 0.625 C-1.8475 2.275 -2.5075 3.925 -3.1875 5.625 C-2.1975 5.955 -1.2075 6.285 -0.1875 6.625 C-1.8375 6.295 -3.4875 5.965 -5.1875 5.625 C-5.1875 4.305 -5.1875 2.985 -5.1875 1.625 C-2.1875 -0.375 -2.1875 -0.375 0 0 Z " fill="#B3B3B3" transform="translate(21.1875,50.375)"/>
<path d="M0 0 C-0.33 1.32 -0.66 2.64 -1 4 C-3.31 3.67 -5.62 3.34 -8 3 C-8 2.34 -8 1.68 -8 1 C-5.07175348 0.02391783 -3.04386724 -0.08226668 0 0 Z " fill="#E4E4E4" transform="translate(28,50)"/>
<path d="M0 0 C1.32 0.33 2.64 0.66 4 1 C3.34 3.31 2.68 5.62 2 8 C1.34 7.67 0.68 7.34 0 7 C0 4.69 0 2.38 0 0 Z " fill="#F14E48" transform="translate(18,18)"/>
<path d="M0 0 C-1 3 -1 3 -3.4375 4.75 C-4.7059375 5.36875 -4.7059375 5.36875 -6 6 C-6.66 5.67 -7.32 5.34 -8 5 C-8 4.34 -8 3.68 -8 3 C-2.25 0 -2.25 0 0 0 Z " fill="#594242" transform="translate(40,34)"/>
<path d="M0 0 C4.75 0.75 4.75 0.75 7 3 C6.01 3.495 6.01 3.495 5 4 C5.33 4.66 5.66 5.32 6 6 C3.37812506 4.95125002 2.20628639 4.35068687 0.75 1.875 C0.5025 1.25625 0.255 0.6375 0 0 Z " fill="#4B201F" transform="translate(20,30)"/>
<path d="M0 0 C0.33 0.66 0.66 1.32 1 2 C-0.98 4.97 -0.98 4.97 -3 8 C-4 5 -4 5 -3.1875 2.875 C-2 1 -2 1 0 0 Z " fill="#5C2826" transform="translate(45,24)"/>
<path d="M0 0 C-0.33 0.99 -0.66 1.98 -1 3 C-2.65 3.33 -4.3 3.66 -6 4 C-6 3.01 -6 2.02 -6 1 C-3 0 -3 0 0 0 Z " fill="#381311" transform="translate(41,31)"/>
<path d="M0 0 C2 3 2 3 1.625 5.1875 C1.41875 5.785625 1.2125 6.38375 1 7 C-0.32 6.67 -1.64 6.34 -3 6 C-2.67 5.01 -2.34 4.02 -2 3 C-1.34 3.33 -0.68 3.66 0 4 C0 2.68 0 1.36 0 0 Z " fill="#E82C24" transform="translate(39,18)"/>
<path d="M0 0 C0.99 0 1.98 0 3 0 C2.75 1.875 2.75 1.875 2 4 C-0.0625 5.25 -0.0625 5.25 -2 6 C-1.34 4.02 -0.68 2.04 0 0 Z " fill="#EA130B" transform="translate(28,20)"/>
</svg>
